<svg width="969" height="409" viewBox="0 0 969 409" version="1.1" xmlns="http://www.w3.org/2000/svg" xmlns:xlink="http://www.w3.org/1999/xlink">
<title>chart</title>
<desc>Created using Figma</desc>
<g id="Canvas" transform="translate(-3695 911)">
<g id="chart">
<g id="Group 14">
<g id="Rectangle 5">
<use xlink:href="#path0_fill" transform="translate(3695 -911)" fill="#FFFFFF"/>
</g>
<g id="Group 5">
<mask id="mask0_outline" mask-type="alpha">
<g id="Duplicate control">
<use xlink:href="#path1_fill" transform="translate(3799.39 -857)" fill="#FFFFFF"/>
</g>
</mask>
<g id="Rectangle 2" mask="url(#mask0_outline)">
<use xlink:href="#path2_fill" transform="translate(3799.39 -857)" fill="#4DA1FF"/>
</g>
<g id="Rectangle 2" mask="url(#mask0_outline)">
<use xlink:href="#path3_fill" transform="translate(4466.06 -759.8)" fill="#4DA1FF"/>
</g>
<g id="Rectangle 2 Copy 5" mask="url(#mask0_outline)">
<use xlink:href="#path4_fill" transform="translate(4608.4 -619.4)" fill="#4DA1FF"/>
</g>
<g id="Rectangle 2" mask="url(#mask0_outline)">
<use xlink:href="#path5_fill" transform="translate(4437.59 -786.8)" fill="#4DA1FF"/>
</g>
<g id="Rectangle 2 Copy 6" mask="url(#mask0_outline)">
<use xlink:href="#path6_fill" transform="translate(4579.94 -659.9)" fill="#4DA1FF"/>
</g>
<g id="Rectangle 2" mask="url(#mask0_outline)">
<use xlink:href="#path7_fill" transform="translate(4409.12 -732.242)" fill="#4DA1FF"/>
</g>
<g id="Rectangle 2 Copy 7" mask="url(#mask0_outline)">
<use xlink:href="#path8_fill" transform="translate(4551.47 -699.617)" fill="#4DA1FF"/>
</g>
<g id="Rectangle 2" mask="url(#mask0_outline)">
<use xlink:href="#path9_fill" transform="translate(4380.65 -808.4)" fill="#4DA1FF"/>
</g>
<g id="Rectangle 2 Copy 8" mask="url(#mask0_outline)">
<use xlink:href="#path6_fill" transform="translate(4523 -659.9)" fill="#4DA1FF"/>
</g>
<g id="Rectangle 2" mask="url(#mask0_outline)">
<use xlink:href="#path10_fill" transform="translate(4352.18 -754.4)" fill="#4DA1FF"/>
</g>
<g id="Rectangle 2 Copy 9" mask="url(#mask0_outline)">
<use xlink:href="#path11_fill" transform="translate(4494.53 -713.058)" fill="#4DA1FF"/>
</g>
<g id="Rectangle 2" mask="url(#mask0_outline)">
<use xlink:href="#path12_fill" transform="translate(4322.66 -781.179)" fill="#4DA1FF"/>
</g>
<g id="Rectangle 2" mask="url(#mask0_outline)">
<use xlink:href="#path10_fill" transform="translate(4293.92 -754.4)" fill="#4DA1FF"/>
</g>
<g id="Rectangle 2" mask="url(#mask0_outline)">
<use xlink:href="#path9_fill" transform="translate(4265.18 -808.4)" fill="#4DA1FF"/>
</g>
<g id="Rectangle 2" mask="url(#mask0_outline)">
<use xlink:href="#path2_fill" transform="translate(4236.44 -857)" fill="#4DA1FF"/>
</g>
<g id="Rectangle 2" mask="url(#mask0_outline)">
<use xlink:href="#path13_fill" transform="translate(4207.51 -814.588)" fill="#4DA1FF"/>
</g>
<g id="Rectangle 2" mask="url(#mask0_outline)">
<use xlink:href="#path13_fill" transform="translate(4003.45 -814.588)" fill="#4DA1FF"/>
</g>
<g id="Rectangle 2" mask="url(#mask0_outline)">
<use xlink:href="#path14_fill" transform="translate(4178.77 -765.65)" fill="#4DA1FF"/>
</g>
<g id="Rectangle 2" mask="url(#mask0_outline)">
<use xlink:href="#path8_fill" transform="translate(4150.03 -700.4)" fill="#4DA1FF"/>
</g>
<g id="Rectangle 2" mask="url(#mask0_outline)">
<use xlink:href="#path15_fill" transform="translate(4121.29 -651.463)" fill="#4DA1FF"/>
</g>
<g id="Rectangle 2" mask="url(#mask0_outline)">
<use xlink:href="#path8_fill" transform="translate(4091.11 -700.4)" fill="#4DA1FF"/>
</g>
<g id="Rectangle 2" mask="url(#mask0_outline)">
<use xlink:href="#path7_fill" transform="translate(4062.37 -733.025)" fill="#4DA1FF"/>
</g>
<g id="Rectangle 2" mask="url(#mask0_outline)">
<use xlink:href="#path14_fill" transform="translate(4033.63 -765.65)" fill="#4DA1FF"/>
</g>
<g id="Rectangle 2" mask="url(#mask0_outline)">
<use xlink:href="#path16_fill" transform="translate(3974.71 -830.9)" fill="#4DA1FF"/>
</g>
<g id="Rectangle 2" mask="url(#mask0_outline)">
<use xlink:href="#path8_fill" transform="translate(3945.97 -700.4)" fill="#4DA1FF"/>
</g>
<g id="Rectangle 2" mask="url(#mask0_outline)">
<use xlink:href="#path14_fill" transform="translate(3915.79 -765.65)" fill="#4DA1FF"/>
</g>
<g id="Rectangle 2" mask="url(#mask0_outline)">
<use xlink:href="#path13_fill" transform="translate(3887.05 -814.588)" fill="#4DA1FF"/>
</g>
<g id="Rectangle 2" mask="url(#mask0_outline)">
<use xlink:href="#path12_fill" transform="translate(3858.31 -781.962)" fill="#4DA1FF"/>
</g>
<g id="Rectangle 2" mask="url(#mask0_outline)">
<use xlink:href="#path14_fill" transform="translate(3828.13 -765.65)" fill="#4DA1FF"/>
</g>
</g>
<g id="Group 5">
<g id="Path 2">
<use xlink:href="#path17_stroke" transform="translate(3802.47 -845.035)" fill="#BDBDBD"/>
</g>
<g id="Oval 1 Copy">
<use xlink:href="#path18_fill" transform="translate(3799.39 -777.482)" fill="#E0E0E0"/>
<use xlink:href="#path19_stroke" transform="translate(3799.39 -777.482)" fill="#BDBDBD"/>
</g>
<g id="Oval 1 Copy 3">
<use xlink:href="#path18_fill" transform="translate(3912.84 -799.552)" fill="#E0E0E0"/>
<use xlink:href="#path19_stroke" transform="translate(3912.84 -799.552)" fill="#BDBDBD"/>
</g>
<g id="Oval 1 Copy 4">
<use xlink:href="#path18_fill" transform="translate(3945.97 -740.731)" fill="#E0E0E0"/>
<use xlink:href="#path19_stroke" transform="translate(3945.97 -740.731)" fill="#BDBDBD"/>
</g>
<g id="Oval 1 Copy 5">
<use xlink:href="#path18_fill" transform="translate(3974.71 -781.513)" fill="#E0E0E0"/>
<use xlink:href="#path19_stroke" transform="translate(3974.71 -781.513)" fill="#BDBDBD"/>
</g>
<g id="Oval 1 Copy 6">
<use xlink:href="#path18_fill" transform="translate(4003.86 -835.728)" fill="#E0E0E0"/>
<use xlink:href="#path19_stroke" transform="translate(4003.86 -835.728)" fill="#BDBDBD"/>
</g>
<g id="Oval 1 Copy 7">
<use xlink:href="#path18_fill" transform="translate(4033.64 -780.745)" fill="#E0E0E0"/>
<use xlink:href="#path19_stroke" transform="translate(4033.64 -780.745)" fill="#BDBDBD"/>
</g>
<g id="Oval 1 Copy 8">
<use xlink:href="#path18_fill" transform="translate(4062.07 -796.482)" fill="#E0E0E0"/>
<use xlink:href="#path19_stroke" transform="translate(4062.07 -796.482)" fill="#BDBDBD"/>
</g>
<g id="Oval 1 Copy 9">
<use xlink:href="#path18_fill" transform="translate(4091.11 -730.944)" fill="#E0E0E0"/>
<use xlink:href="#path19_stroke" transform="translate(4091.11 -730.944)" fill="#BDBDBD"/>
</g>
<g id="Oval 1 Copy 10">
<use xlink:href="#path18_fill" transform="translate(4119.85 -682.006)" fill="#E0E0E0"/>
<use xlink:href="#path19_stroke" transform="translate(4119.85 -682.006)" fill="#BDBDBD"/>
</g>
<g id="Oval 1 Copy 11">
<use xlink:href="#path18_fill" transform="translate(4170.19 -781.8)" fill="#E0E0E0"/>
<use xlink:href="#path19_stroke" transform="translate(4170.19 -781.8)" fill="#BDBDBD"/>
</g>
<g id="Oval 1 Copy 12">
<use xlink:href="#path18_fill" transform="translate(4193.79 -793.891)" fill="#E0E0E0"/>
<use xlink:href="#path19_stroke" transform="translate(4193.79 -793.891)" fill="#BDBDBD"/>
</g>
<g id="Oval 1 Copy 13">
<use xlink:href="#path18_fill" transform="translate(4205.08 -838.1)" fill="#E0E0E0"/>
<use xlink:href="#path19_stroke" transform="translate(4205.08 -838.1)" fill="#BDBDBD"/>
</g>
<g id="Oval 1 Copy 14">
<use xlink:href="#path18_fill" transform="translate(4235.93 -848.9)" fill="#E0E0E0"/>
<use xlink:href="#path19_stroke" transform="translate(4235.93 -848.9)" fill="#BDBDBD"/>
</g>
<g id="Oval 1 Copy 15">
<use xlink:href="#path18_fill" transform="translate(4295.24 -781.4)" fill="#E0E0E0"/>
<use xlink:href="#path19_stroke" transform="translate(4295.24 -781.4)" fill="#BDBDBD"/>
</g>
<g id="Oval 1 Copy 16">
<use xlink:href="#path18_fill" transform="translate(4383.02 -848.9)" fill="#E0E0E0"/>
<use xlink:href="#path19_stroke" transform="translate(4383.02 -848.9)" fill="#BDBDBD"/>
</g>
<g id="Oval 1 Copy 17">
<use xlink:href="#path18_fill" transform="translate(4449.45 -805.7)" fill="#E0E0E0"/>
<use xlink:href="#path19_stroke" transform="translate(4449.45 -805.7)" fill="#BDBDBD"/>
</g>
<g id="Oval 1 Copy 18">
<use xlink:href="#path18_fill" transform="translate(4492.15 -759.8)" fill="#E0E0E0"/>
<use xlink:href="#path19_stroke" transform="translate(4492.15 -759.8)" fill="#BDBDBD"/>
</g>
<g id="Oval 1 Copy 19">
<use xlink:href="#path18_fill" transform="translate(4520.62 -705.8)" fill="#E0E0E0"/>
<use xlink:href="#path19_stroke" transform="translate(4520.62 -705.8)" fill="#BDBDBD"/>
</g>
<g id="Oval 1 Copy 20">
<use xlink:href="#path18_fill" transform="translate(4568.07 -738.2)" fill="#E0E0E0"/>
<use xlink:href="#path19_stroke" transform="translate(4568.07 -738.2)" fill="#BDBDBD"/>
</g>
<g id="Oval 1 Copy 21">
<use xlink:href="#path18_fill" transform="translate(4620.27 -670.7)" fill="#E0E0E0"/>
<use xlink:href="#path19_stroke" transform="translate(4620.27 -670.7)" fill="#BDBDBD"/>
</g>
<g id="Oval 1 Copy 2">
<use xlink:href="#path18_fill" transform="translate(3872.57 -842.253)" fill="#E0E0E0"/>
<use xlink:href="#path19_stroke" transform="translate(3872.57 -842.253)" fill="#BDBDBD"/>
</g>
</g>
</g>
<g id="100 50 20 10 0 (%)">
<use xlink:href="#path20_fill" transform="translate(3718 -870)" fill="#4F4F4F"/>
</g>
<g id="1 Okt">
<use xlink:href="#path21_fill" transform="matrix(0.746523 0.66536 -0.66536 0.746523 3808.64 -561)" fill="#4F4F4F"/>
</g>
</g>
</g>
<defs>
<path id="path0_fill" fill-rule="evenodd" d="M 0 6C 0 2.68629 2.68629 0 6 0L 963 0C 966.314 0 969 2.68629 969 6L 969 403C 969 406.314 966.314 409 963 409L 6 409C 2.68629 409 0 406.314 0 403L 0 6Z"/>
<path id="path1_fill" fill-rule="evenodd" d="M 0 0L 864.611 0L 864.611 287.883L 0 287.883L 0 0Z"/>
<path id="path2_fill" fill-rule="evenodd" d="M 0 0L 7.64334 0L 7.64334 287.883L 0 287.883L 0 0Z"/>
<path id="path3_fill" fill-rule="evenodd" d="M 0 0L 7.64334 0L 7.64334 190.683L 0 190.683L 0 0Z"/>
<path id="path4_fill" fill-rule="evenodd" d="M 0 0L 7.64334 0L 7.64334 50.2832L 0 50.2832L 0 0Z"/>
<path id="path5_fill" fill-rule="evenodd" d="M 0 0L 7.64334 0L 7.64334 217.683L 0 217.683L 0 0Z"/>
<path id="path6_fill" fill-rule="evenodd" d="M 0 0L 7.64334 0L 7.64334 90.7832L 0 90.7832L 0 0Z"/>
<path id="path7_fill" fill-rule="evenodd" d="M 0 0L 7.64334 0L 7.64334 163.125L 0 163.125L 0 0Z"/>
<path id="path8_fill" fill-rule="evenodd" d="M 0 0L 7.64334 0L 7.64334 130.5L 0 130.5L 0 0Z"/>
<path id="path9_fill" fill-rule="evenodd" d="M 0 0L 7.64334 0L 7.64334 239.283L 0 239.283L 0 0Z"/>
<path id="path10_fill" fill-rule="evenodd" d="M 0 0L 7.64334 0L 7.64334 185.283L 0 185.283L 0 0Z"/>
<path id="path11_fill" fill-rule="evenodd" d="M 0 0L 7.64334 0L 7.64334 143.942L 0 143.942L 0 0Z"/>
<path id="path12_fill" fill-rule="evenodd" d="M 0 0L 7.64334 0L 7.64334 212.062L 0 212.062L 0 0Z"/>
<path id="path13_fill" fill-rule="evenodd" d="M 0 0L 7.64334 0L 7.64334 244.688L 0 244.688L 0 0Z"/>
<path id="path14_fill" fill-rule="evenodd" d="M 0 0L 7.64334 0L 7.64334 195.75L 0 195.75L 0 0Z"/>
<path id="path15_fill" fill-rule="evenodd" d="M 0 0L 7.64334 0L 7.64334 81.5625L 0 81.5625L 0 0Z"/>
<path id="path16_fill" fill-rule="evenodd" d="M 0 0L 7.64334 0L 7.64334 261L 0 261L 0 0Z"/>
<path id="path17_stroke" d="M 75.0444 5.90581L 75.4148 5.57001L 75.0845 5.20555L 74.7147 5.52993L 75.0444 5.90581ZM 115.268 50.2794L 115.707 50.0406L 115.678 49.988L 115.638 49.9436L 115.268 50.2794ZM 147.559 109.682L 147.12 109.92L 147.494 110.609L 147.961 109.979L 147.559 109.682ZM 177.983 68.6336L 178.385 68.9313L 178.412 68.8952L 178.432 68.855L 177.983 68.6336ZM 205.336 13.2457L 205.778 13.012L 205.321 12.1471L 204.888 13.0243L 205.336 13.2457ZM 234.773 68.9335L 234.331 69.1671L 234.579 69.6363L 235.032 69.3608L 234.773 68.9335ZM 262.878 51.8623L 263.335 51.6596L 263.104 51.1397L 262.618 51.435L 262.878 51.8623ZM 292.673 119.045L 292.216 119.248L 292.228 119.275L 292.243 119.301L 292.673 119.045ZM 322.892 169.861L 322.462 170.116L 322.945 170.929L 323.345 170.072L 322.892 169.861ZM 370.909 67.0023L 370.674 66.5611L 370.527 66.6396L 370.456 66.7908L 370.909 67.0023ZM 394.553 54.4059L 394.788 54.8472L 394.969 54.7505L 395.03 54.5543L 394.553 54.4059ZM 407.345 13.2457L 407.153 12.7844L 406.937 12.8744L 406.868 13.0973L 407.345 13.2457ZM 439.017 0L 439.327 -0.392633L 439.096 -0.574808L 438.824 -0.461284L 439.017 0ZM 467.181 22.2064L 467.605 21.9407L 467.559 21.8674L 467.491 21.8138L 467.181 22.2064ZM 497.152 69.968L 496.729 70.2337L 497.026 70.7074L 497.463 70.3593L 497.152 69.968ZM 525.891 47.1076L 525.59 46.7077L 525.579 46.7163L 525.891 47.1076ZM 585.115 2.62617L 585.388 2.20722L 585.094 2.01616L 584.814 2.22638L 585.115 2.62617ZM 647.731 43.4162L 648.089 43.0678L 648.05 43.0277L 648.003 42.9973L 647.731 43.4162ZM 694.643 91.7051L 695.09 91.4819L 695.055 91.4124L 695.001 91.3567L 694.643 91.7051ZM 721.009 144.566L 720.561 144.789L 720.811 145.29L 721.281 144.986L 721.009 144.566ZM 771.628 111.749L 772.029 111.452L 771.75 111.074L 771.356 111.33L 771.628 111.749ZM 0.329717 72.1095L 75.3741 6.28169L 74.7147 5.52993L -0.329717 71.3577L 0.329717 72.1095ZM 74.6739 6.24161L 114.897 50.6152L 115.638 49.9436L 75.4148 5.57001L 74.6739 6.24161ZM 114.828 50.5182L 147.12 109.92L 147.998 109.443L 115.707 50.0406L 114.828 50.5182ZM 147.961 109.979L 178.385 68.9313L 177.582 68.3359L 147.157 109.384L 147.961 109.979ZM 178.432 68.855L 205.784 13.4671L 204.888 13.0243L 177.535 68.4122L 178.432 68.855ZM 204.894 13.4794L 234.331 69.1671L 235.215 68.6998L 205.778 13.012L 204.894 13.4794ZM 235.032 69.3608L 263.137 52.2896L 262.618 51.435L 234.513 68.5061L 235.032 69.3608ZM 262.421 52.065L 292.216 119.248L 293.13 118.842L 263.335 51.6596L 262.421 52.065ZM 292.243 119.301L 322.462 170.116L 323.322 169.605L 293.102 118.79L 292.243 119.301ZM 323.345 170.072L 371.362 67.2139L 370.456 66.7908L 322.439 169.649L 323.345 170.072ZM 371.144 67.4436L 394.788 54.8472L 394.318 53.9646L 370.674 66.5611L 371.144 67.4436ZM 395.03 54.5543L 407.823 13.3941L 406.868 13.0973L 394.075 54.2575L 395.03 54.5543ZM 407.538 13.707L 439.21 0.461284L 438.824 -0.461284L 407.153 12.7844L 407.538 13.707ZM 438.708 0.392633L 466.871 22.5991L 467.491 21.8138L 439.327 -0.392633L 438.708 0.392633ZM 466.758 22.4722L 496.729 70.2337L 497.576 69.7022L 467.605 21.9407L 466.758 22.4722ZM 497.463 70.3593L 526.202 47.4989L 525.579 46.7163L 496.841 69.5767L 497.463 70.3593ZM 526.191 47.5074L 585.415 3.02597L 584.814 2.22638L 525.59 46.7078L 526.191 47.5074ZM 584.842 3.04512L 647.458 43.8352L 648.003 42.9973L 585.388 2.20722L 584.842 3.04512ZM 647.372 43.7646L 694.284 92.0535L 695.001 91.3567L 648.089 43.0678L 647.372 43.7646ZM 694.195 91.9283L 720.561 144.789L 721.456 144.343L 695.09 91.4819L 694.195 91.9283ZM 721.281 144.986L 771.9 112.169L 771.356 111.33L 720.737 144.146L 721.281 144.986ZM 771.226 112.047L 821.122 179.389L 821.926 178.794L 772.029 111.452L 771.226 112.047Z"/>
<path id="path18_fill" fill-rule="evenodd" d="M 4.31114 9.77964C 6.69211 9.77964 8.62227 7.59039 8.62227 4.88982C 8.62227 2.18925 6.69211 0 4.31114 0C 1.93016 0 0 2.18925 0 4.88982C 0 7.59039 1.93016 9.77964 4.31114 9.77964Z"/>
<path id="path19_stroke" d="M 4.31114 10.2796C 7.02557 10.2796 9.12227 7.8055 9.12227 4.88982L 8.12227 4.88982C 8.12227 7.37529 6.35865 9.27964 4.31114 9.27964L 4.31114 10.2796ZM 9.12227 4.88982C 9.12227 1.97414 7.02557 -0.5 4.31114 -0.5L 4.31114 0.5C 6.35865 0.5 8.12227 2.40435 8.12227 4.88982L 9.12227 4.88982ZM 4.31114 -0.5C 1.5967 -0.5 -0.5 1.97414 -0.5 4.88982L 0.5 4.88982C 0.5 2.40435 2.26362 0.5 4.31114 0.5L 4.31114 -0.5ZM -0.5 4.88982C -0.5 7.8055 1.5967 10.2796 4.31114 10.2796L 4.31114 9.27964C 2.26362 9.27964 0.5 7.37529 0.5 4.88982L -0.5 4.88982Z"/>
<path id="path20_fill" d="M 6.40723 51L 4.77246 51L 4.77246 40.1631L 1.49414 41.3672L 1.49414 39.8906L 6.15234 38.1416L 6.40723 38.1416L 6.40723 51ZM 11.918 44.584L 12.5684 38.2031L 19.125 38.2031L 19.125 39.7061L 13.9482 39.7061L 13.5615 43.1953C 14.1885 42.8262 14.9004 42.6416 15.6973 42.6416C 16.8633 42.6416 17.7891 43.0283 18.4746 43.8018C 19.1602 44.5693 19.5029 45.6094 19.5029 46.9219C 19.5029 48.2402 19.1455 49.2803 18.4307 50.042C 17.7217 50.7979 16.7285 51.1758 15.4512 51.1758C 14.3203 51.1758 13.3975 50.8623 12.6826 50.2354C 11.9678 49.6084 11.5605 48.7412 11.4609 47.6338L 12.999 47.6338C 13.0986 48.3662 13.3594 48.9199 13.7812 49.2949C 14.2031 49.6641 14.7598 49.8486 15.4512 49.8486C 16.207 49.8486 16.7988 49.5908 17.2266 49.0752C 17.6602 48.5596 17.877 47.8477 17.877 46.9395C 17.877 46.084 17.6426 45.3984 17.1738 44.8828C 16.7109 44.3613 16.0928 44.1006 15.3193 44.1006C 14.6104 44.1006 14.0537 44.2559 13.6494 44.5664L 13.2188 44.918L 11.918 44.584ZM 29.3027 45.542C 29.3027 47.4463 28.9775 48.8613 28.3271 49.7871C 27.6768 50.7129 26.6602 51.1758 25.2773 51.1758C 23.9121 51.1758 22.9014 50.7246 22.2451 49.8223C 21.5889 48.9141 21.249 47.5605 21.2256 45.7617L 21.2256 43.5908C 21.2256 41.71 21.5508 40.3125 22.2012 39.3984C 22.8516 38.4844 23.8711 38.0273 25.2598 38.0273C 26.6367 38.0273 27.6504 38.4697 28.3008 39.3545C 28.9512 40.2334 29.2852 41.5928 29.3027 43.4326L 29.3027 45.542ZM 27.6768 43.3184C 27.6768 41.9414 27.4834 40.9395 27.0967 40.3125C 26.71 39.6797 26.0977 39.3633 25.2598 39.3633C 24.4277 39.3633 23.8213 39.6768 23.4404 40.3037C 23.0596 40.9307 22.8633 41.8945 22.8516 43.1953L 22.8516 45.7969C 22.8516 47.1797 23.0508 48.2021 23.4492 48.8643C 23.8535 49.5205 24.4629 49.8486 25.2773 49.8486C 26.0801 49.8486 26.6748 49.5381 27.0615 48.917C 27.4541 48.2959 27.6592 47.3174 27.6768 45.9814L 27.6768 43.3184ZM 6.40723 101L 4.77246 101L 4.77246 90.1631L 1.49414 91.3672L 1.49414 89.8906L 6.15234 88.1416L 6.40723 88.1416L 6.40723 101ZM 19.1953 95.542C 19.1953 97.4463 18.8701 98.8613 18.2197 99.7871C 17.5693 100.713 16.5527 101.176 15.1699 101.176C 13.8047 101.176 12.7939 100.725 12.1377 99.8223C 11.4814 98.9141 11.1416 97.5605 11.1182 95.7617L 11.1182 93.5908C 11.1182 91.71 11.4434 90.3125 12.0938 89.3984C 12.7441 88.4844 13.7637 88.0273 15.1523 88.0273C 16.5293 88.0273 17.543 88.4697 18.1934 89.3545C 18.8438 90.2334 19.1777 91.5928 19.1953 93.4326L 19.1953 95.542ZM 17.5693 93.3184C 17.5693 91.9414 17.376 90.9395 16.9893 90.3125C 16.6025 89.6797 15.9902 89.3633 15.1523 89.3633C 14.3203 89.3633 13.7139 89.6768 13.333 90.3037C 12.9521 90.9307 12.7559 91.8945 12.7441 93.1953L 12.7441 95.7969C 12.7441 97.1797 12.9434 98.2021 13.3418 98.8643C 13.7461 99.5205 14.3555 99.8486 15.1699 99.8486C 15.9727 99.8486 16.5674 99.5381 16.9541 98.917C 17.3467 98.2959 17.5518 97.3174 17.5693 95.9814L 17.5693 93.3184ZM 29.3027 95.542C 29.3027 97.4463 28.9775 98.8613 28.3271 99.7871C 27.6768 100.713 26.6602 101.176 25.2773 101.176C 23.9121 101.176 22.9014 100.725 22.2451 99.8223C 21.5889 98.9141 21.249 97.5605 21.2256 95.7617L 21.2256 93.5908C 21.2256 91.71 21.5508 90.3125 22.2012 89.3984C 22.8516 88.4844 23.8711 88.0273 25.2598 88.0273C 26.6367 88.0273 27.6504 88.4697 28.3008 89.3545C 28.9512 90.2334 29.2852 91.5928 29.3027 93.4326L 29.3027 95.542ZM 27.6768 93.3184C 27.6768 91.9414 27.4834 90.9395 27.0967 90.3125C 26.71 89.6797 26.0977 89.3633 25.2598 89.3633C 24.4277 89.3633 23.8213 89.6768 23.4404 90.3037C 23.0596 90.9307 22.8633 91.8945 22.8516 93.1953L 22.8516 95.7969C 22.8516 97.1797 23.0508 98.2021 23.4492 98.8643C 23.8535 99.5205 24.4629 99.8486 25.2773 99.8486C 26.0801 99.8486 26.6748 99.5381 27.0615 98.917C 27.4541 98.2959 27.6592 97.3174 27.6768 95.9814L 27.6768 93.3184ZM 1.81055 144.584L 2.46094 138.203L 9.01758 138.203L 9.01758 139.706L 3.84082 139.706L 3.4541 143.195C 4.08105 142.826 4.79297 142.642 5.58984 142.642C 6.75586 142.642 7.68164 143.028 8.36719 143.802C 9.05273 144.569 9.39551 145.609 9.39551 146.922C 9.39551 148.24 9.03809 149.28 8.32324 150.042C 7.61426 150.798 6.62109 151.176 5.34375 151.176C 4.21289 151.176 3.29004 150.862 2.5752 150.235C 1.86035 149.608 1.45312 148.741 1.35352 147.634L 2.8916 147.634C 2.99121 148.366 3.25195 148.92 3.67383 149.295C 4.0957 149.664 4.65234 149.849 5.34375 149.849C 6.09961 149.849 6.69141 149.591 7.11914 149.075C 7.55273 148.56 7.76953 147.848 7.76953 146.939C 7.76953 146.084 7.53516 145.398 7.06641 144.883C 6.60352 144.361 5.98535 144.101 5.21191 144.101C 4.50293 144.101 3.94629 144.256 3.54199 144.566L 3.11133 144.918L 1.81055 144.584ZM 19.1953 145.542C 19.1953 147.446 18.8701 148.861 18.2197 149.787C 17.5693 150.713 16.5527 151.176 15.1699 151.176C 13.8047 151.176 12.7939 150.725 12.1377 149.822C 11.4814 148.914 11.1416 147.561 11.1182 145.762L 11.1182 143.591C 11.1182 141.71 11.4434 140.312 12.0938 139.398C 12.7441 138.484 13.7637 138.027 15.1523 138.027C 16.5293 138.027 17.543 138.47 18.1934 139.354C 18.8438 140.233 19.1777 141.593 19.1953 143.433L 19.1953 145.542ZM 17.5693 143.318C 17.5693 141.941 17.376 140.939 16.9893 140.312C 16.6025 139.68 15.9902 139.363 15.1523 139.363C 14.3203 139.363 13.7139 139.677 13.333 140.304C 12.9521 140.931 12.7559 141.895 12.7441 143.195L 12.7441 145.797C 12.7441 147.18 12.9434 148.202 13.3418 148.864C 13.7461 149.521 14.3555 149.849 15.1699 149.849C 15.9727 149.849 16.5674 149.538 16.9541 148.917C 17.3467 148.296 17.5518 147.317 17.5693 145.981L 17.5693 143.318ZM 9.44824 201L 1.06348 201L 1.06348 199.831L 5.49316 194.909C 6.14941 194.165 6.60059 193.562 6.84668 193.099C 7.09863 192.63 7.22461 192.146 7.22461 191.648C 7.22461 190.98 7.02246 190.433 6.61816 190.005C 6.21387 189.577 5.6748 189.363 5.00098 189.363C 4.19238 189.363 3.5625 189.595 3.11133 190.058C 2.66602 190.515 2.44336 191.153 2.44336 191.974L 0.817383 191.974C 0.817383 190.796 1.19531 189.844 1.95117 189.117C 2.71289 188.391 3.72949 188.027 5.00098 188.027C 6.19043 188.027 7.13086 188.341 7.82227 188.968C 8.51367 189.589 8.85938 190.418 8.85938 191.455C 8.85938 192.715 8.05664 194.215 6.45117 195.955L 3.02344 199.673L 9.44824 199.673L 9.44824 201ZM 19.1953 195.542C 19.1953 197.446 18.8701 198.861 18.2197 199.787C 17.5693 200.713 16.5527 201.176 15.1699 201.176C 13.8047 201.176 12.7939 200.725 12.1377 199.822C 11.4814 198.914 11.1416 197.561 11.1182 195.762L 11.1182 193.591C 11.1182 191.71 11.4434 190.312 12.0938 189.398C 12.7441 188.484 13.7637 188.027 15.1523 188.027C 16.5293 188.027 17.543 188.47 18.1934 189.354C 18.8438 190.233 19.1777 191.593 19.1953 193.433L 19.1953 195.542ZM 17.5693 193.318C 17.5693 191.941 17.376 190.939 16.9893 190.312C 16.6025 189.68 15.9902 189.363 15.1523 189.363C 14.3203 189.363 13.7139 189.677 13.333 190.304C 12.9521 190.931 12.7559 191.895 12.7441 193.195L 12.7441 195.797C 12.7441 197.18 12.9434 198.202 13.3418 198.864C 13.7461 199.521 14.3555 199.849 15.1699 199.849C 15.9727 199.849 16.5674 199.538 16.9541 198.917C 17.3467 198.296 17.5518 197.317 17.5693 195.981L 17.5693 193.318ZM 6.40723 251L 4.77246 251L 4.77246 240.163L 1.49414 241.367L 1.49414 239.891L 6.15234 238.142L 6.40723 238.142L 6.40723 251ZM 19.1953 245.542C 19.1953 247.446 18.8701 248.861 18.2197 249.787C 17.5693 250.713 16.5527 251.176 15.1699 251.176C 13.8047 251.176 12.7939 250.725 12.1377 249.822C 11.4814 248.914 11.1416 247.561 11.1182 245.762L 11.1182 243.591C 11.1182 241.71 11.4434 240.312 12.0938 239.398C 12.7441 238.484 13.7637 238.027 15.1523 238.027C 16.5293 238.027 17.543 238.47 18.1934 239.354C 18.8438 240.233 19.1777 241.593 19.1953 243.433L 19.1953 245.542ZM 17.5693 243.318C 17.5693 241.941 17.376 240.939 16.9893 240.312C 16.6025 239.68 15.9902 239.363 15.1523 239.363C 14.3203 239.363 13.7139 239.677 13.333 240.304C 12.9521 240.931 12.7559 241.895 12.7441 243.195L 12.7441 245.797C 12.7441 247.18 12.9434 248.202 13.3418 248.864C 13.7461 249.521 14.3555 249.849 15.1699 249.849C 15.9727 249.849 16.5674 249.538 16.9541 248.917C 17.3467 248.296 17.5518 247.317 17.5693 245.981L 17.5693 243.318ZM 9.08789 295.542C 9.08789 297.446 8.7627 298.861 8.1123 299.787C 7.46191 300.713 6.44531 301.176 5.0625 301.176C 3.69727 301.176 2.68652 300.725 2.03027 299.822C 1.37402 298.914 1.03418 297.561 1.01074 295.762L 1.01074 293.591C 1.01074 291.71 1.33594 290.312 1.98633 289.398C 2.63672 288.484 3.65625 288.027 5.04492 288.027C 6.42188 288.027 7.43555 288.47 8.08594 289.354C 8.73633 290.233 9.07031 291.593 9.08789 293.433L 9.08789 295.542ZM 7.46191 293.318C 7.46191 291.941 7.26855 290.939 6.88184 290.312C 6.49512 289.68 5.88281 289.363 5.04492 289.363C 4.21289 289.363 3.60645 289.677 3.22559 290.304C 2.84473 290.931 2.64844 291.895 2.63672 293.195L 2.63672 295.797C 2.63672 297.18 2.83594 298.202 3.23438 298.864C 3.63867 299.521 4.24805 299.849 5.0625 299.849C 5.86523 299.849 6.45996 299.538 6.84668 298.917C 7.23926 298.296 7.44434 297.317 7.46191 295.981L 7.46191 293.318ZM 15.7412 295.806C 15.7412 294.481 15.917 293.21 16.2686 291.991C 16.626 290.772 17.1562 289.665 17.8594 288.669C 18.5625 287.673 19.292 286.97 20.0479 286.56L 20.3818 287.632C 19.5264 288.288 18.8232 289.29 18.2725 290.638C 17.7275 291.985 17.4287 293.494 17.376 295.164L 17.3672 295.911C 17.3672 298.173 17.7803 300.136 18.6064 301.8C 19.1045 302.796 19.6963 303.575 20.3818 304.138L 20.0479 305.131C 19.2686 304.697 18.5244 303.971 17.8154 302.951C 16.4326 300.959 15.7412 298.577 15.7412 295.806ZM 27.8262 300.06C 27.1934 300.804 26.2646 301.176 25.04 301.176C 24.0264 301.176 23.2529 300.883 22.7197 300.297C 22.1924 299.705 21.9258 298.832 21.9199 297.678L 21.9199 291.49L 23.5459 291.49L 23.5459 297.634C 23.5459 299.075 24.1318 299.796 25.3037 299.796C 26.5459 299.796 27.3721 299.333 27.7822 298.407L 27.7822 291.49L 29.4082 291.49L 29.4082 301L 27.8613 301L 27.8262 300.06ZM 37.4238 298.478C 37.4238 298.038 37.2568 297.698 36.9229 297.458C 36.5947 297.212 36.0176 297.001 35.1914 296.825C 34.3711 296.649 33.7178 296.438 33.2314 296.192C 32.751 295.946 32.3936 295.653 32.1592 295.313C 31.9307 294.974 31.8164 294.569 31.8164 294.101C 31.8164 293.321 32.1445 292.662 32.8008 292.123C 33.4629 291.584 34.3066 291.314 35.332 291.314C 36.4102 291.314 37.2832 291.593 37.9512 292.149C 38.625 292.706 38.9619 293.418 38.9619 294.285L 37.3271 294.285C 37.3271 293.84 37.1367 293.456 36.7559 293.134C 36.3809 292.812 35.9062 292.65 35.332 292.65C 34.7402 292.65 34.2773 292.779 33.9434 293.037C 33.6094 293.295 33.4424 293.632 33.4424 294.048C 33.4424 294.44 33.5977 294.736 33.9082 294.936C 34.2188 295.135 34.7783 295.325 35.5869 295.507C 36.4014 295.688 37.0605 295.905 37.5645 296.157C 38.0684 296.409 38.4404 296.714 38.6807 297.071C 38.9268 297.423 39.0498 297.854 39.0498 298.363C 39.0498 299.213 38.71 299.896 38.0303 300.411C 37.3506 300.921 36.4687 301.176 35.3848 301.176C 34.623 301.176 33.9492 301.041 33.3633 300.771C 32.7773 300.502 32.3174 300.127 31.9834 299.646C 31.6553 299.16 31.4912 298.636 31.4912 298.073L 33.1172 298.073C 33.1465 298.618 33.3633 299.052 33.7676 299.374C 34.1777 299.69 34.7168 299.849 35.3848 299.849C 36 299.849 36.4922 299.726 36.8613 299.479C 37.2363 299.228 37.4238 298.894 37.4238 298.478ZM 45.1143 301.176C 43.8252 301.176 42.7764 300.754 41.9678 299.91C 41.1592 299.061 40.7549 297.927 40.7549 296.509L 40.7549 296.21C 40.7549 295.267 40.9336 294.426 41.291 293.688C 41.6543 292.943 42.1582 292.363 42.8027 291.947C 43.4531 291.525 44.1562 291.314 44.9121 291.314C 46.1484 291.314 47.1094 291.722 47.7949 292.536C 48.4805 293.351 48.8232 294.517 48.8232 296.034L 48.8232 296.711L 42.3809 296.711C 42.4043 297.648 42.6768 298.407 43.1982 298.987C 43.7256 299.562 44.3936 299.849 45.2021 299.849C 45.7764 299.849 46.2627 299.731 46.6611 299.497C 47.0596 299.263 47.4082 298.952 47.707 298.565L 48.7002 299.339C 47.9033 300.563 46.708 301.176 45.1143 301.176ZM 44.9121 292.65C 44.2559 292.65 43.7051 292.891 43.2598 293.371C 42.8145 293.846 42.5391 294.514 42.4336 295.375L 47.1973 295.375L 47.1973 295.252C 47.1504 294.426 46.9277 293.787 46.5293 293.336C 46.1309 292.879 45.5918 292.65 44.9121 292.65ZM 55.3096 292.949C 55.0635 292.908 54.7969 292.888 54.5098 292.888C 53.4434 292.888 52.7197 293.342 52.3389 294.25L 52.3389 301L 50.7129 301L 50.7129 291.49L 52.2949 291.49L 52.3213 292.589C 52.8545 291.739 53.6104 291.314 54.5889 291.314C 54.9053 291.314 55.1455 291.355 55.3096 291.438L 55.3096 292.949ZM 60.5654 295.894C 60.5654 297.2 60.3926 298.454 60.0469 299.655C 59.707 300.851 59.1826 301.955 58.4736 302.969C 57.7705 303.982 57.0322 304.703 56.2588 305.131L 55.916 304.138C 56.8184 303.446 57.542 302.374 58.0869 300.921C 58.6377 299.462 58.9189 297.845 58.9307 296.069L 58.9307 295.788C 58.9307 294.558 58.8018 293.415 58.5439 292.36C 58.2861 291.3 57.9258 290.351 57.4629 289.513C 57.0059 288.675 56.4902 288.021 55.916 287.553L 56.2588 286.56C 57.0322 286.987 57.7676 287.702 58.4648 288.704C 59.168 289.706 59.6924 290.811 60.0381 292.018C 60.3896 293.225 60.5654 294.517 60.5654 295.894Z"/>
<path id="path21_fill" d="M 9.162 16.776L 9.162 18L 2.25 18L 2.25 16.776L 5.013 16.776L 5.013 7.983C 5.013 7.719 5.022 7.452 5.04 7.182L 2.745 9.153C 2.667 9.219 2.589 9.261 2.511 9.279C 2.433 9.291 2.361 9.291 2.295 9.279C 2.229 9.267 2.166 9.243 2.106 9.207C 2.052 9.171 2.01 9.132 1.98 9.09L 1.476 8.397L 5.319 5.076L 6.624 5.076L 6.624 16.776L 9.162 16.776ZM 28.6099 11.556C 28.6099 12.522 28.4569 13.41 28.1509 14.22C 27.8449 15.024 27.4129 15.717 26.8549 16.299C 26.2969 16.881 25.6249 17.334 24.8389 17.658C 24.0589 17.976 23.1949 18.135 22.2469 18.135C 21.2989 18.135 20.4349 17.976 19.6549 17.658C 18.8749 17.334 18.2059 16.881 17.6479 16.299C 17.0899 15.717 16.6579 15.024 16.3519 14.22C 16.0459 13.41 15.8929 12.522 15.8929 11.556C 15.8929 10.59 16.0459 9.705 16.3519 8.901C 16.6579 8.091 17.0899 7.395 17.6479 6.813C 18.2059 6.225 18.8749 5.769 19.6549 5.445C 20.4349 5.121 21.2989 4.959 22.2469 4.959C 23.1949 4.959 24.0589 5.121 24.8389 5.445C 25.6249 5.769 26.2969 6.225 26.8549 6.813C 27.4129 7.395 27.8449 8.091 28.1509 8.901C 28.4569 9.705 28.6099 10.59 28.6099 11.556ZM 26.8189 11.556C 26.8189 10.764 26.7109 10.053 26.4949 9.423C 26.2789 8.793 25.9729 8.262 25.5769 7.83C 25.1809 7.392 24.7009 7.056 24.1369 6.822C 23.5729 6.588 22.9429 6.471 22.2469 6.471C 21.5569 6.471 20.9299 6.588 20.3659 6.822C 19.8019 7.056 19.3189 7.392 18.9169 7.83C 18.5209 8.262 18.2149 8.793 17.9989 9.423C 17.7829 10.053 17.6749 10.764 17.6749 11.556C 17.6749 12.348 17.7829 13.059 17.9989 13.689C 18.2149 14.313 18.5209 14.844 18.9169 15.282C 19.3189 15.714 19.8019 16.047 20.3659 16.281C 20.9299 16.509 21.5569 16.623 22.2469 16.623C 22.9429 16.623 23.5729 16.509 24.1369 16.281C 24.7009 16.047 25.1809 15.714 25.5769 15.282C 25.9729 14.844 26.2789 14.313 26.4949 13.689C 26.7109 13.059 26.8189 12.348 26.8189 11.556ZM 32.1652 4.743L 32.1652 12.546L 32.5792 12.546C 32.6992 12.546 32.7982 12.531 32.8762 12.501C 32.9602 12.465 33.0472 12.396 33.1372 12.294L 36.0172 9.207C 36.1012 9.105 36.1882 9.027 36.2782 8.973C 36.3742 8.913 36.5002 8.883 36.6562 8.883L 38.1052 8.883L 34.7482 12.456C 34.5862 12.66 34.4122 12.819 34.2262 12.933C 34.3342 13.005 34.4302 13.089 34.5142 13.185C 34.6042 13.275 34.6882 13.38 34.7662 13.5L 38.3302 18L 36.8992 18C 36.7612 18 36.6412 17.979 36.5392 17.937C 36.4432 17.889 36.3592 17.805 36.2872 17.685L 33.2902 13.95C 33.2002 13.824 33.1102 13.743 33.0202 13.707C 32.9362 13.665 32.8042 13.644 32.6242 13.644L 32.1652 13.644L 32.1652 18L 30.5542 18L 30.5542 4.743L 32.1652 4.743ZM 42.4938 18.144C 41.7738 18.144 41.2188 17.943 40.8288 17.541C 40.4448 17.139 40.2528 16.56 40.2528 15.804L 40.2528 10.224L 39.1548 10.224C 39.0588 10.224 38.9778 10.197 38.9118 10.143C 38.8458 10.083 38.8128 9.993 38.8128 9.873L 38.8128 9.234L 40.3068 9.045L 40.6758 6.228C 40.6938 6.138 40.7328 6.066 40.7928 6.012C 40.8588 5.952 40.9428 5.922 41.0448 5.922L 41.8548 5.922L 41.8548 9.063L 44.4918 9.063L 44.4918 10.224L 41.8548 10.224L 41.8548 15.696C 41.8548 16.08 41.9478 16.365 42.1338 16.551C 42.3198 16.737 42.5598 16.83 42.8538 16.83C 43.0218 16.83 43.1658 16.809 43.2858 16.767C 43.4118 16.719 43.5198 16.668 43.6098 16.614C 43.6998 16.56 43.7748 16.512 43.8348 16.47C 43.9008 16.422 43.9578 16.398 44.0058 16.398C 44.0898 16.398 44.1648 16.449 44.2308 16.551L 44.6988 17.316C 44.4228 17.574 44.0898 17.778 43.6998 17.928C 43.3098 18.072 42.9078 18.144 42.4938 18.144Z"/>
</defs>
</svg>
