<svg xmlns="http://www.w3.org/2000/svg" viewBox="0 0 370.26 328.64"><defs><style>.cls-1{fill:#fff;}</style></defs><title>Asset 5</title><g id="Layer_2" data-name="Layer 2"><g id="Layer_1-2" data-name="Layer 1"><path class="cls-1" d="M243,78.74a63.43,63.43,0,1,0,6,26.83A63.92,63.92,0,0,0,243,78.74Zm-19.49,40.94a40.66,40.66,0,1,1,2.52-14.1A40.64,40.64,0,0,1,223.55,119.68Z"/><path class="cls-1" d="M242.09,194.37l-9-19.34-12.56-27.09-26,12.05,12.59,27.15,9,19.32,0,0,.35-.16a107.51,107.51,0,0,0,25-11.57l.68-.32Z"/><path class="cls-1" d="M244.1,45a83.6,83.6,0,0,0-20-14.41l7.29-19.91a105.18,105.18,0,0,1,20.5,13Z"/><path class="cls-1" d="M196.81,189.33l8.82,19.86A105.57,105.57,0,0,1,140.72,9.86a104.69,104.69,0,0,1,70.37-6.57L203.8,23.2a84.5,84.5,0,0,0-95.31,118,84.61,84.61,0,0,0,88.33,48.17Z"/><path class="cls-1" d="M251.07,188l-9.38-19.67a84.64,84.64,0,0,0,20.08-98.32q-1-2.24-2.19-4.39l9-24.69A105.75,105.75,0,0,1,251.07,188Z"/><path class="cls-1" d="M53.61,285.53l-5.38,3.34q-7-9.25-19-9.25a22,22,0,0,0-16,6.19,20.21,20.21,0,0,0-6.36,15A21.36,21.36,0,0,0,9.8,311.7a20.52,20.52,0,0,0,8,7.89,23.35,23.35,0,0,0,11.44,2.81,23.14,23.14,0,0,0,19-9.25l5.38,3.54a25.39,25.39,0,0,1-10.15,8.83A32.41,32.41,0,0,1,29,328.64q-12.5,0-20.73-7.94A25.84,25.84,0,0,1,0,301.37a27.6,27.6,0,0,1,3.85-14.22,27.13,27.13,0,0,1,10.58-10.24,30.88,30.88,0,0,1,15.06-3.68,32.17,32.17,0,0,1,10.1,1.6A28.08,28.08,0,0,1,47.85,279,22.68,22.68,0,0,1,53.61,285.53Z"/><path class="cls-1" d="M119.14,274.59v52.69h-6.68v-9.06a29.07,29.07,0,0,1-9.57,7.8,26.72,26.72,0,0,1-30.71-5.5,27.2,27.2,0,0,1-7.92-19.74,26.7,26.7,0,0,1,8-19.47,26.05,26.05,0,0,1,19.23-8.09A24.87,24.87,0,0,1,103.23,276a26.73,26.73,0,0,1,9.23,8.28v-9.69ZM92,279.77A20.44,20.44,0,0,0,74,290.37a21.35,21.35,0,0,0,0,21.29,20.78,20.78,0,0,0,7.67,7.91A20,20,0,0,0,92,322.39a21.17,21.17,0,0,0,10.55-2.81,19.63,19.63,0,0,0,7.67-7.6,21.68,21.68,0,0,0,2.69-10.79,21,21,0,0,0-6-15.29A20,20,0,0,0,92,279.77Z"/><path class="cls-1" d="M131.83,274.59h6.93v7.7a24.31,24.31,0,0,1,6.54-6.8,12.9,12.9,0,0,1,7.17-2.25,12.37,12.37,0,0,1,6,1.79l-3.54,5.71a9.45,9.45,0,0,0-3.58-.92,9.81,9.81,0,0,0-6.54,2.78q-3.15,2.79-4.79,8.65-1.26,4.5-1.26,18.21v17.82h-6.93Z"/><path class="cls-1" d="M166.58,258.48a5.59,5.59,0,0,1,0,11.19A5.61,5.61,0,0,1,161,264.1a5.42,5.42,0,0,1,1.64-4A5.32,5.32,0,0,1,166.58,258.48Z"/><rect class="cls-1" x="163.21" y="274.59" width="6.78" height="52.69"/><path class="cls-1" d="M188.37,252.89a8.09,8.09,0,0,1,6,2.52,8.36,8.36,0,0,1,2.49,6.1,8.26,8.26,0,0,1-2.46,6,8,8,0,0,1-5.89,2.49,8.1,8.1,0,0,1-6-2.54,8.5,8.5,0,0,1-2.49-6.17,8.42,8.42,0,0,1,8.4-8.43Zm-6.61,21.7H195v52.69H181.76Z"/><path class="cls-1" d="M205.54,254.25h13.22v73H205.54Z"/><path class="cls-1" d="M230.68,274.59H243.9v6.05a22.57,22.57,0,0,1,7.54-5.57,22,22,0,0,1,9-1.84,16.8,16.8,0,0,1,8.92,2.42,17.51,17.51,0,0,1,6.4,7.07,21.36,21.36,0,0,1,7.73-7.07,21.08,21.08,0,0,1,10-2.42,18.54,18.54,0,0,1,9.89,2.62,15.12,15.12,0,0,1,6.13,6.83q1.87,4.21,1.87,13.71v30.9H298.1V300.55q0-9-2.23-12.13a7.63,7.63,0,0,0-6.68-3.17,10.14,10.14,0,0,0-6.08,1.94,11.45,11.45,0,0,0-4,5.35q-1.31,3.41-1.31,11v23.78H264.48V301.76q0-7.07-1-10.24a9.27,9.27,0,0,0-3.13-4.72,8.23,8.23,0,0,0-5-1.55,10,10,0,0,0-6,2,11.7,11.7,0,0,0-4,5.5q-1.34,3.54-1.34,11.14v23.44H230.68Z"/><path class="cls-1" d="M324,274.59h13.37V300q0,7.41,1,10.29a9,9,0,0,0,3.28,4.48,9.37,9.37,0,0,0,5.56,1.6,9.71,9.71,0,0,0,5.61-1.57,9.23,9.23,0,0,0,3.42-4.63q.83-2.28.83-9.74V274.59h13.22v22.33q0,13.8-2.18,18.89a20.6,20.6,0,0,1-7.85,9.52q-5.18,3.32-13.17,3.32-8.67,0-14-3.87a20.46,20.46,0,0,1-7.53-10.8Q324,309.17,324,296.53Z"/></g></g></svg>