<svg xmlns="http://www.w3.org/2000/svg" viewBox="0 0 859.24 205.86"><defs><style>.cls-1{fill:#fff;}.cls-2{opacity:0.14;}.cls-3{opacity:0.2;}</style></defs><title>Asset 4mdpi</title><g id="Layer_2" data-name="Layer 2"><g id="Layer_1-2" data-name="Layer 1"><path class="cls-1" d="M282.62,134.43a39.46,39.46,0,0,1-19.35-4.75,34.57,34.57,0,0,1-13.58-13.34,36.07,36.07,0,0,1-5-18.31,34.21,34.21,0,0,1,10.76-25.45c.19-.19.39-.37.59-.54q10.6-9.92,26.45-9.93,20.37,0,32.15,15.64l9.1-5.65A38.47,38.47,0,0,0,314,61a47.32,47.32,0,0,0-14-7A54.29,54.29,0,0,0,283,51.3a52,52,0,0,0-25.47,6.22,46.23,46.23,0,0,0-13.26,10.74,48.39,48.39,0,0,0-4.65,6.58,46.85,46.85,0,0,0-6.51,24A43.69,43.69,0,0,0,247,131.56q13.9,13.44,35,13.43a54.85,54.85,0,0,0,24.54-5.29,43,43,0,0,0,17.16-14.93l-9.1-6Q302.25,134.42,282.62,134.43Z"/><path class="cls-1" d="M423.28,53.58V70a45.15,45.15,0,0,0-15.61-14,42,42,0,0,0-19.85-4.67A44,44,0,0,0,355.3,65a44.9,44.9,0,0,0-12.5,22.88,48.65,48.65,0,0,0-1,10q0,19.63,13.39,33.36a45.23,45.23,0,0,0,51.93,9.3,49.23,49.23,0,0,0,16.17-13.19V142.7h11.3V53.58Zm.74,45a36.71,36.71,0,0,1-4.55,18.25,33.1,33.1,0,0,1-13,12.84,35.77,35.77,0,0,1-17.82,4.75,34,34,0,0,1-17.47-4.79,35.23,35.23,0,0,1-13-13.38,36.32,36.32,0,0,1-4.82-18,35.2,35.2,0,0,1,1.15-9,36.85,36.85,0,0,1,3.64-8.95,34.58,34.58,0,0,1,30.56-17.91,33.66,33.66,0,0,1,25.06,10.38,34.8,34.8,0,0,1,10.06,22.42C424,96.28,424,97.43,424,98.6Z"/><path class="cls-1" d="M490.94,51.3a21.81,21.81,0,0,0-12.13,3.8,40.85,40.85,0,0,0-11.06,11.5v-13H456V142.7h11.72V112.55c0-5.75.1-10.77.3-15.1q.48-10.91,1.83-15.69,2.79-9.89,8.1-14.61T489,62.43A16.16,16.16,0,0,1,495.12,64l6-9.66A21,21,0,0,0,490.94,51.3Z"/><path class="cls-1" d="M524.27,35.86a9.5,9.5,0,0,1-9.47,9.42,9.5,9.5,0,0,1-9.37-9.42,9.1,9.1,0,0,1,2.77-6.71,9,9,0,0,1,6.6-2.79,9.5,9.5,0,0,1,9.47,9.5Z"/><rect class="cls-1" x="509.12" y="53.58" width="11.47" height="89.12"/><rect class="cls-1" x="540.49" y="53.58" width="22.36" height="89.12"/><path class="cls-1" d="M561.75,21.15a14.13,14.13,0,0,0-20.12-.07,13.68,13.68,0,0,0-4.18,10.06,14.38,14.38,0,0,0,4.21,10.45,13.73,13.73,0,0,0,10.16,4.3,13.56,13.56,0,0,0,10-4.21A14,14,0,0,0,566,31.48,14.17,14.17,0,0,0,561.75,21.15Z"/><path class="cls-1" d="M580.7,19.19V142.7h22.36V19.19Z"/><path class="cls-1" d="M756.57,67.26a25.6,25.6,0,0,0-10.37-11.55,31.38,31.38,0,0,0-16.72-4.41,35.46,35.46,0,0,0-16.91,4.09,36.12,36.12,0,0,0-13.09,12,29.45,29.45,0,0,0-10.81-12,28.36,28.36,0,0,0-15.08-4.09,37.16,37.16,0,0,0-15.29,3.11,38.36,38.36,0,0,0-12.75,9.42V53.58H623.2V142.7h22.36V103.06c0-1.89,0-3.69.12-5.36.25-5.88,1-10.38,2.15-13.48a19.76,19.76,0,0,1,6.82-9.3,16.75,16.75,0,0,1,10.13-3.31,13.94,13.94,0,0,1,8.54,2.62,15.62,15.62,0,0,1,5.29,8c1,3,1.59,7.66,1.72,13.87q.05,1.65.05,3.45V142.7H702.9V102.49q0-4.31.25-7.81a38.44,38.44,0,0,1,1.94-10.74,19.44,19.44,0,0,1,6.76-9,17.06,17.06,0,0,1,10.28-3.28q7.53,0,11.3,5.36,3,4.34,3.64,15.05c.08,1.71.14,3.52.14,5.46V142.7h22.53V89.81Q759.66,74.26,756.57,67.26Z"/><path class="cls-1" d="M836.88,53.58V97.25c0,8.4-.46,13.9-1.39,16.45a15.65,15.65,0,0,1-5.8,7.83,16.4,16.4,0,0,1-9.49,2.65,15.74,15.74,0,0,1-9.39-2.71,15,15,0,0,1-5.55-7.58q-1.72-4.87-1.72-17.4V53.58H780.94v37.1q0,21.38,2.62,29.49a34.53,34.53,0,0,0,12.73,18.26Q805.35,145,820,145q13.52,0,22.29-5.6a34.92,34.92,0,0,0,13.26-16.1q3.7-8.6,3.69-31.94V53.58Z"/><path class="cls-1" d="M159.3,76.74A62.22,62.22,0,1,0,129,159.39a62.24,62.24,0,0,0,32.25-35.06,61.7,61.7,0,0,0-2-47.59Zm-19,39.91a39.88,39.88,0,0,1-71.5,7,35.22,35.22,0,0,1-2.13-3.94,39.88,39.88,0,1,1,74.8-6.78A37.78,37.78,0,0,1,140.31,116.65Z"/><path class="cls-1" d="M158.37,189.44l-8.74-18.85-12.25-26.41-25.33,11.75,12.27,26.46,8.74,18.83,0,0,.34-.16a104.78,104.78,0,0,0,24.33-11.28l.66-.31Z"/><path class="cls-1" d="M167.93,23.17,160.34,43.9a81.31,81.31,0,0,0-19.5-14L148,10.45A103.38,103.38,0,0,1,167.93,23.17Z"/><path class="cls-1" d="M114.24,184.53l8.61,19.35A102.89,102.89,0,0,1,59.56,9.61a102,102,0,0,1,68.59-6.39l-7.1,19.4a82.36,82.36,0,1,0-6.82,161.92Z"/><path class="cls-1" d="M167.13,183.28,158,164.1A82.63,82.63,0,0,0,184,89a81.51,81.51,0,0,0-6.46-20.73c-.66-1.47-1.39-2.89-2.13-4.28l8.81-24.08a103.68,103.68,0,0,1,12,19.72A101.41,101.41,0,0,1,200,69,103.14,103.14,0,0,1,167.13,183.28Z"/><g class="cls-2"><path class="cls-1" d="M21.75,117.18a167.83,167.83,0,0,1-21.51-7.1A103,103,0,0,1,59.56,9.61a102,102,0,0,1,68.59-6.39l-7.1,19.4a82.35,82.35,0,0,0-99.3,94.57Z"/><path class="cls-1" d="M159.3,76.74a61.91,61.91,0,0,1,5.82,25.62,147.78,147.78,0,0,1-23.64,10.57,39.88,39.88,0,1,0-74.8,6.78,35.22,35.22,0,0,0,2.13,3.94,218.33,218.33,0,0,1-25.33-2.11A62.22,62.22,0,0,1,159.3,76.74Z"/><path class="cls-1" d="M148,10.45a103.38,103.38,0,0,1,20,12.72L160.34,43.9a81.31,81.31,0,0,0-19.5-14Z"/><path class="cls-1" d="M200,69a70.61,70.61,0,0,1-16,20,81.51,81.51,0,0,0-6.46-20.73c-.66-1.47-1.39-2.89-2.13-4.28l8.81-24.08a103.68,103.68,0,0,1,12,19.72A101.41,101.41,0,0,1,200,69Z"/></g><g class="cls-3"><path class="cls-1" d="M323.78,72.1l-9.1,5.65Q302.91,62.1,282.53,62.11q-15.85,0-26.45,9.93c-4.28-1.23-8.24-2.49-11.82-3.77a46.23,46.23,0,0,1,13.26-10.74A52,52,0,0,1,283,51.3,54.29,54.29,0,0,1,300.07,54a47.32,47.32,0,0,1,14,7A38.47,38.47,0,0,1,323.78,72.1Z"/><path class="cls-1" d="M434.58,53.58V95.81c-3.6-.2-7.15-.42-10.69-.64a34.8,34.8,0,0,0-10.06-22.42,33.66,33.66,0,0,0-25.06-10.38,34.58,34.58,0,0,0-30.56,17.91,36.85,36.85,0,0,0-3.64,8.95q-6-.66-11.77-1.35A44.9,44.9,0,0,1,355.3,65,44,44,0,0,1,387.82,51.3,42,42,0,0,1,407.67,56a45.15,45.15,0,0,1,15.61,14V53.58Z"/><path class="cls-1" d="M490.94,51.3a21,21,0,0,1,10.15,3l-6,9.66A16.16,16.16,0,0,0,489,62.43q-5.73,0-11.06,4.72t-8.1,14.61q-1.34,4.79-1.83,15.69c-4-.15-8-.34-12-.51V53.58h11.72v13a40.85,40.85,0,0,1,11.06-11.5A21.81,21.81,0,0,1,490.94,51.3Z"/><path class="cls-1" d="M509.12,53.58h11.47V99q-5.76-.1-11.47-.24Z"/><path class="cls-1" d="M521.5,29.15a9.41,9.41,0,0,1,0,13.34,9.11,9.11,0,0,1-6.7,2.79,9.5,9.5,0,0,1-9.37-9.42,9.1,9.1,0,0,1,2.77-6.71,9,9,0,0,1,6.6-2.79A9.11,9.11,0,0,1,521.5,29.15Z"/><path class="cls-1" d="M561.75,21.15A14.17,14.17,0,0,1,566,31.48a14,14,0,0,1-4.16,10.2,13.56,13.56,0,0,1-10,4.21,13.73,13.73,0,0,1-10.16-4.3,14.38,14.38,0,0,1-4.21-10.45,13.68,13.68,0,0,1,4.18-10.06,14.13,14.13,0,0,1,20.12.07Z"/><path class="cls-1" d="M540.49,53.58h22.36V99.29h-3q-9.74,0-19.36-.08Z"/><path class="cls-1" d="M580.7,19.19h22.36v79.7q-11.06.23-22.36.3Z"/><path class="cls-1" d="M759.74,89.81q-11,1.14-22.66,2.22-.58-10.7-3.64-15.05-3.75-5.35-11.3-5.36a17.06,17.06,0,0,0-10.28,3.28,19.44,19.44,0,0,0-6.76,9,38.44,38.44,0,0,0-1.94,10.74q-11.19.76-22.83,1.4c-.14-6.21-.73-10.82-1.72-13.87a15.62,15.62,0,0,0-5.29-8,13.94,13.94,0,0,0-8.54-2.62,16.75,16.75,0,0,0-10.13,3.31,19.76,19.76,0,0,0-6.82,9.3c-1.17,3.09-1.89,7.59-2.15,13.48q-11.11.41-22.47.73V53.58h22.36V63.83a38.36,38.36,0,0,1,12.75-9.42,37.16,37.16,0,0,1,15.29-3.11,28.36,28.36,0,0,1,15.08,4.09,29.45,29.45,0,0,1,10.81,12,36.12,36.12,0,0,1,13.09-12,35.46,35.46,0,0,1,16.91-4.09,31.38,31.38,0,0,1,16.72,4.41,25.6,25.6,0,0,1,10.37,11.55Q759.67,74.24,759.74,89.81Z"/><path class="cls-1" d="M780.94,53.58h22.61V84.26c-7.2,1.07-14.76,2.11-22.61,3.09Z"/><path class="cls-1" d="M859.24,53.58V73.23c-6.73,1.81-14.2,3.53-22.36,5.19V53.58Z"/></g></g></g></svg>