<svg width="21" height="23" viewBox="0 0 21 23" version="1.1" xmlns="http://www.w3.org/2000/svg" xmlns:xlink="http://www.w3.org/1999/xlink">
<title>search icon</title>
<desc>Created using Figma</desc>
<g id="Canvas" transform="translate(-4413 1184)">
<g id="search icon">
<use xlink:href="#path0_fill" transform="translate(4413 -1183)" fill="#989898" fill-opacity="0.61"/>
<mask id="mask0_outline_ins">
<use xlink:href="#path0_fill" fill="white" transform="translate(4413 -1183)"/>
</mask>
<g mask="url(#mask0_outline_ins)">
<use xlink:href="#path1_stroke_2x" transform="translate(4413 -1183)" fill="#FFFFFF"/>
</g>
</g>
</g>
<defs>
<path id="path0_fill" fill-rule="evenodd" d="M 19.9898 19.2851L 15.7933 14.9062C 16.9739 13.3394 17.6842 11.368 17.6842 9.22562C 17.6842 4.13867 13.7178 0 8.84268 0C 3.96646 0 0 4.13867 0 9.22562C 0 14.3114 3.96646 18.4501 8.84268 18.4501C 10.7528 18.4501 12.5191 17.8066 13.967 16.728L 18.2031 21.1488C 18.4501 21.406 18.773 21.534 19.097 21.534C 19.4199 21.534 19.7428 21.406 19.9898 21.1488C 20.4826 20.6344 20.4826 19.8006 19.9898 19.2851ZM 2.52539 9.2256C 2.52539 5.59222 5.36003 2.63635 8.84272 2.63635C 12.3254 2.63635 15.1578 5.59222 15.1578 9.2256C 15.1578 12.859 12.3254 15.8137 8.84272 15.8137C 5.36003 15.8137 2.52539 12.859 2.52539 9.2256Z"/>
<path id="path1_stroke_2x" d="M 15.7933 14.9062L 15.3141 14.5452L 15.007 14.9529L 15.3601 15.3214L 15.7933 14.9062ZM 13.967 16.728L 14.4002 16.3129L 14.0336 15.9303L 13.6086 16.2468L 13.967 16.728ZM 18.2031 21.1488L 17.7699 21.5639L 17.7704 21.5644L 18.2031 21.1488ZM 19.9898 21.1488L 20.4225 21.5644L 20.423 21.5639L 19.9898 21.1488ZM 20.423 18.8699L 16.2265 14.4911L 15.3601 15.3214L 19.5566 19.7002L 20.423 18.8699ZM 16.2725 15.2673C 17.5016 13.6248 18.2753 11.4713 18.2842 9.22562L 17.0842 9.22562C 17.0932 11.2648 16.4461 13.0539 15.3141 14.5452L 16.2725 15.2673ZM 18.2842 9.22562C 18.2842 3.8316 14.0729 -0.6 8.84268 -0.6L 8.84268 0.6C 13.3626 0.6 17.0842 4.44574 17.0842 9.22562L 18.2842 9.22562ZM 8.84268 -0.6C 3.61135 -0.6 -0.6 3.83154 -0.6 9.22562L 0.6 9.22562C 0.6 4.4458 4.32157 0.6 8.84268 0.6L 8.84268 -0.6ZM -0.6 9.22562C -0.6 14.6186 3.6114 19.0501 8.84268 19.0501L 8.84268 17.8501C 4.32152 17.8501 0.6 14.0043 0.6 9.22562L -0.6 9.22562ZM 8.84268 19.0501C 10.8571 19.041 12.804 18.3346 14.3255 17.2092L 13.6086 16.2468C 12.2342 17.2786 10.6486 17.8592 8.84268 17.8501L 8.84268 19.0501ZM 13.5338 17.1431L 17.7699 21.5639L 18.6363 20.7337L 14.4002 16.3129L 13.5338 17.1431ZM 17.7704 21.5644C 18.1327 21.9417 18.6129 22.134 19.097 22.134L 19.097 20.934C 18.9331 20.934 18.7675 20.8703 18.6359 20.7332L 17.7704 21.5644ZM 19.097 22.134C 19.5803 22.134 20.0604 21.9415 20.4225 21.5644L 19.557 20.7332C 19.4252 20.8705 19.2595 20.934 19.097 20.934L 19.097 22.134ZM 20.423 21.5639C 21.1385 20.8172 21.1378 19.6176 20.4235 18.8705L 19.5561 19.6997C 19.8274 19.9835 19.8268 20.4517 19.5566 20.7337L 20.423 21.5639ZM 3.12539 9.2256C 3.12539 5.89956 5.71494 3.23635 8.84272 3.23635L 8.84272 2.03635C 5.00513 2.03635 1.92539 5.28488 1.92539 9.2256L 3.12539 9.2256ZM 8.84272 3.23635C 11.9702 3.23635 14.5578 5.89927 14.5578 9.2256L 15.7578 9.2256C 15.7578 5.28517 12.6806 2.03635 8.84272 2.03635L 8.84272 3.23635ZM 14.5578 9.2256C 14.5578 12.5518 11.9704 15.2137 8.84272 15.2137L 8.84272 16.4137C 12.6805 16.4137 15.7578 13.1662 15.7578 9.2256L 14.5578 9.2256ZM 8.84272 15.2137C 5.71481 15.2137 3.12539 12.5515 3.12539 9.2256L 1.92539 9.2256C 1.92539 13.1664 5.00526 16.4137 8.84272 16.4137L 8.84272 15.2137Z"/>
</defs>
</svg>
